<svg id="visual" viewBox="0 0 900 600" width="900" height="600" xmlns="http://www.w3.org/2000/svg" xmlns:xlink="http://www.w3.org/1999/xlink" version="1.1"><rect x="0" y="0" width="900" height="600" fill="#FFFFFF"></rect><defs><linearGradient id="grad1_0" x1="33.3%" y1="0%" x2="100%" y2="100%"><stop offset="20%" stop-color="#ffffff" stop-opacity="1"></stop><stop offset="80%" stop-color="#ffffff" stop-opacity="1"></stop></linearGradient></defs><defs><linearGradient id="grad2_0" x1="0%" y1="0%" x2="66.7%" y2="100%"><stop offset="20%" stop-color="#ffffff" stop-opacity="1"></stop><stop offset="80%" stop-color="#ffffff" stop-opacity="1"></stop></linearGradient></defs><g transform="translate(900, 0)"><path d="M0 243.4C-14.1 235.5 -28.2 227.7 -38 215.7C-47.8 203.6 -53.3 187.4 -69.1 189.8C-84.9 192.2 -111.1 213.2 -118.5 205.2C-125.9 197.3 -114.5 160.5 -127.3 151.7C-140 142.8 -177 161.9 -186.4 156.4C-195.9 151 -178 121.1 -183.6 106C-189.2 90.9 -218.5 90.6 -220.8 80.4C-223.2 70.1 -198.7 50 -197.9 34.9C-197.2 19.8 -220.3 9.9 -243.4 0L0 0Z" fill="#a4a0a0"></path></g><g transform="translate(0, 600)"><path d="M0 -243.4C15.1 -243.8 30.3 -244.1 41.5 -235.4C52.7 -226.6 60 -208.6 75.2 -206.7C90.5 -204.8 113.8 -218.9 120 -207.8C126.2 -196.8 115.3 -160.5 126 -150.1C136.7 -139.8 169.1 -155.5 180.8 -151.7C192.5 -147.9 183.6 -124.6 193.1 -111.5C202.6 -98.4 230.5 -95.5 228.7 -83.2C226.9 -71 195.5 -49.5 193 -34C190.5 -18.6 217 -9.3 243.4 0L0 0Z" fill="#a4a0a0"></path></g></svg>